<svg width="512" height="371" viewBox="0 0 512 371" fill="none" xmlns="http://www.w3.org/2000/svg">
<path d="M21.504 131.528H52.736V141H9.856V51.784H21.504V131.528ZM71.122 59.464C68.9033 59.464 67.026 58.696 65.49 57.16C63.954 55.624 63.186 53.7467 63.186 51.528C63.186 49.3093 63.954 47.432 65.49 45.896C67.026 44.36 68.9033 43.592 71.122 43.592C73.2553 43.592 75.0473 44.36 76.498 45.896C78.034 47.432 78.802 49.3093 78.802 51.528C78.802 53.7467 78.034 55.624 76.498 57.16C75.0473 58.696 73.2553 59.464 71.122 59.464ZM76.754 70.856V141H65.106V70.856H76.754ZM122.718 130.248L144.478 70.856H156.894L129.374 141H115.806L88.286 70.856H100.83L122.718 130.248ZM232.356 103.24C232.356 105.459 232.228 107.805 231.972 110.28H175.908C176.335 117.192 178.681 122.611 182.948 126.536C187.3 130.376 192.548 132.296 198.692 132.296C203.727 132.296 207.908 131.144 211.236 128.84C214.649 126.451 217.039 123.293 218.404 119.368H230.948C229.071 126.109 225.316 131.613 219.684 135.88C214.052 140.061 207.055 142.152 198.692 142.152C192.036 142.152 186.063 140.659 180.772 137.672C175.567 134.685 171.471 130.461 168.484 125C165.497 119.453 164.004 113.053 164.004 105.8C164.004 98.5467 165.455 92.1893 168.356 86.728C171.257 81.2667 175.311 77.0853 180.516 74.184C185.807 71.1973 191.865 69.704 198.692 69.704C205.348 69.704 211.236 71.1547 216.356 74.056C221.476 76.9573 225.401 80.968 228.132 86.088C230.948 91.1227 232.356 96.84 232.356 103.24ZM220.324 100.808C220.324 96.3707 219.343 92.5733 217.38 89.416C215.417 86.1733 212.729 83.7413 209.316 82.12C205.988 80.4133 202.276 79.56 198.18 79.56C192.292 79.56 187.257 81.4373 183.076 85.192C178.98 88.9467 176.633 94.152 176.036 100.808H220.324ZM293.504 51.784V141H281.856V51.784H293.504ZM347.532 69.576C356.065 69.576 362.977 72.1787 368.268 77.384C373.559 82.504 376.204 89.928 376.204 99.656V141H364.684V101.32C364.684 94.3227 362.935 88.9893 359.436 85.32C355.937 81.5653 351.159 79.688 345.1 79.688C338.956 79.688 334.049 81.608 330.38 85.448C326.796 89.288 325.004 94.8773 325.004 102.216V141H313.356V70.856H325.004V80.84C327.308 77.256 330.423 74.4827 334.348 72.52C338.359 70.5573 342.753 69.576 347.532 69.576Z" fill="black"/>
<path d="M44.1 206.45C55.5 206.45 65.35 208.6 73.65 212.9C82.05 217.1 88.45 223.15 92.85 231.05C97.35 238.95 99.6 248.25 99.6 258.95C99.6 269.65 97.35 278.95 92.85 286.85C88.45 294.65 82.05 300.65 73.65 304.85C65.35 308.95 55.5 311 44.1 311H11.55V206.45H44.1ZM44.1 299.75C57.6 299.75 67.9 296.2 75 289.1C82.1 281.9 85.65 271.85 85.65 258.95C85.65 245.95 82.05 235.8 74.85 228.5C67.75 221.2 57.5 217.55 44.1 217.55H25.2V299.75H44.1ZM192.605 266.75C192.605 269.35 192.455 272.1 192.155 275H126.455C126.955 283.1 129.705 289.45 134.705 294.05C139.805 298.55 145.955 300.8 153.155 300.8C159.055 300.8 163.955 299.45 167.855 296.75C171.855 293.95 174.655 290.25 176.255 285.65H190.955C188.755 293.55 184.355 300 177.755 305C171.155 309.9 162.955 312.35 153.155 312.35C145.355 312.35 138.355 310.6 132.155 307.1C126.055 303.6 121.255 298.65 117.755 292.25C114.255 285.75 112.505 278.25 112.505 269.75C112.505 261.25 114.205 253.8 117.605 247.4C121.005 241 125.755 236.1 131.855 232.7C138.055 229.2 145.155 227.45 153.155 227.45C160.955 227.45 167.855 229.15 173.855 232.55C179.855 235.95 184.455 240.65 187.655 246.65C190.955 252.55 192.605 259.25 192.605 266.75ZM178.505 263.9C178.505 258.7 177.355 254.25 175.055 250.55C172.755 246.75 169.605 243.9 165.605 242C161.705 240 157.355 239 152.555 239C145.655 239 139.755 241.2 134.855 245.6C130.055 250 127.305 256.1 126.605 263.9H178.505ZM239.722 312.35C233.422 312.35 227.772 311.3 222.772 309.2C217.772 307 213.822 304 210.922 300.2C208.022 296.3 206.422 291.85 206.122 286.85H220.222C220.622 290.95 222.522 294.3 225.922 296.9C229.422 299.5 233.972 300.8 239.572 300.8C244.772 300.8 248.872 299.65 251.872 297.35C254.872 295.05 256.372 292.15 256.372 288.65C256.372 285.05 254.772 282.4 251.572 280.7C248.372 278.9 243.422 277.15 236.722 275.45C230.622 273.85 225.622 272.25 221.722 270.65C217.922 268.95 214.622 266.5 211.822 263.3C209.122 260 207.772 255.7 207.772 250.4C207.772 246.2 209.022 242.35 211.522 238.85C214.022 235.35 217.572 232.6 222.172 230.6C226.772 228.5 232.022 227.45 237.922 227.45C247.022 227.45 254.372 229.75 259.972 234.35C265.572 238.95 268.572 245.25 268.972 253.25H255.322C255.022 248.95 253.272 245.5 250.072 242.9C246.972 240.3 242.772 239 237.472 239C232.572 239 228.672 240.05 225.772 242.15C222.872 244.25 221.422 247 221.422 250.4C221.422 253.1 222.272 255.35 223.972 257.15C225.772 258.85 227.972 260.25 230.572 261.35C233.272 262.35 236.972 263.5 241.672 264.8C247.572 266.4 252.372 268 256.072 269.6C259.772 271.1 262.922 273.4 265.522 276.5C268.222 279.6 269.622 283.65 269.722 288.65C269.722 293.15 268.472 297.2 265.972 300.8C263.472 304.4 259.922 307.25 255.322 309.35C250.822 311.35 245.622 312.35 239.722 312.35ZM296.041 215.45C293.441 215.45 291.241 214.55 289.441 212.75C287.641 210.95 286.741 208.75 286.741 206.15C286.741 203.55 287.641 201.35 289.441 199.55C291.241 197.75 293.441 196.85 296.041 196.85C298.541 196.85 300.641 197.75 302.341 199.55C304.141 201.35 305.041 203.55 305.041 206.15C305.041 208.75 304.141 210.95 302.341 212.75C300.641 214.55 298.541 215.45 296.041 215.45ZM302.641 228.8V311H288.991V228.8H302.641ZM359.805 227.45C366.905 227.45 373.105 229 378.405 232.1C383.805 235.2 387.805 239.1 390.405 243.8V228.8H404.205V312.8C404.205 320.3 402.605 326.95 399.405 332.75C396.205 338.65 391.605 343.25 385.605 346.55C379.705 349.85 372.805 351.5 364.905 351.5C354.105 351.5 345.105 348.95 337.905 343.85C330.705 338.75 326.455 331.8 325.155 323H338.655C340.155 328 343.255 332 347.955 335C352.655 338.1 358.305 339.65 364.905 339.65C372.405 339.65 378.505 337.3 383.205 332.6C388.005 327.9 390.405 321.3 390.405 312.8V295.55C387.705 300.35 383.705 304.35 378.405 307.55C373.105 310.75 366.905 312.35 359.805 312.35C352.505 312.35 345.855 310.55 339.855 306.95C333.955 303.35 329.305 298.3 325.905 291.8C322.505 285.3 320.805 277.9 320.805 269.6C320.805 261.2 322.505 253.85 325.905 247.55C329.305 241.15 333.955 236.2 339.855 232.7C345.855 229.2 352.505 227.45 359.805 227.45ZM390.405 269.75C390.405 263.55 389.155 258.15 386.655 253.55C384.155 248.95 380.755 245.45 376.455 243.05C372.255 240.55 367.605 239.3 362.505 239.3C357.405 239.3 352.755 240.5 348.555 242.9C344.355 245.3 341.005 248.8 338.505 253.4C336.005 258 334.755 263.4 334.755 269.6C334.755 275.9 336.005 281.4 338.505 286.1C341.005 290.7 344.355 294.25 348.555 296.75C352.755 299.15 357.405 300.35 362.505 300.35C367.605 300.35 372.255 299.15 376.455 296.75C380.755 294.25 384.155 290.7 386.655 286.1C389.155 281.4 390.405 275.95 390.405 269.75ZM467.323 227.3C477.323 227.3 485.423 230.35 491.623 236.45C497.823 242.45 500.923 251.15 500.923 262.55V311H487.423V264.5C487.423 256.3 485.373 250.05 481.273 245.75C477.173 241.35 471.573 239.15 464.473 239.15C457.273 239.15 451.523 241.4 447.223 245.9C443.023 250.4 440.923 256.95 440.923 265.55V311H427.273V228.8H440.923V240.5C443.623 236.3 447.273 233.05 451.873 230.75C456.573 228.45 461.723 227.3 467.323 227.3Z" fill="url(#paint0_linear_186_3)"/>
<defs>
<linearGradient id="paint0_linear_186_3" x1="256" y1="234.5" x2="256" y2="371" gradientUnits="userSpaceOnUse">
<stop stop-color="#F1C75B"/>
<stop offset="1" stop-color="#FF6584"/>
</linearGradient>
</defs>
</svg>
